<svg width="42" height="69" viewBox="0 0 42 69" fill="none" xmlns="http://www.w3.org/2000/svg">
<path d="M41 42.3068V68.1913H28.417V55.9264C28.417 53.544 27.5882 51.3859 26.2454 49.8238C24.9042 48.2599 23.049 47.2957 21.0011 47.2957C16.9037 47.2957 13.5821 51.1579 13.5821 55.9264V68.1913H1V42.3068H41Z" stroke="#C49B64" stroke-miterlimit="10" stroke-linecap="round" stroke-linejoin="round"/>
<path d="M34.0435 42.3068H7.95653V26.3779H34.0435V42.3068Z" stroke="#C49B64" stroke-miterlimit="10" stroke-linecap="round" stroke-linejoin="round"/>
<path d="M21.0008 14.4313L7.95653 26.3779H34.0435L21.0008 14.4313Z" stroke="#C49B64" stroke-miterlimit="10" stroke-linecap="round" stroke-linejoin="round"/>
<path d="M22.7387 31.3557H19.2613L17.5217 34.8401L19.2613 38.3246H22.7387L24.4783 34.8401L22.7387 31.3557Z" stroke="#C49B64" stroke-miterlimit="10" stroke-linecap="round" stroke-linejoin="round"/>
<path d="M21 47.2846V68.1913H14.0435V55.9198C14.0435 51.1489 17.158 47.2846 21 47.2846Z" stroke="#C49B64" stroke-miterlimit="10" stroke-linecap="round" stroke-linejoin="round"/>
<path d="M28.8261 55.9198V68.1913H21V47.2846C23.1612 47.2846 25.119 48.2493 26.5344 49.8141C27.9514 51.377 28.8261 53.5362 28.8261 55.9198Z" stroke="#C49B64" stroke-miterlimit="10" stroke-linecap="round" stroke-linejoin="round"/>
<path d="M21 14.4312V1.48901" stroke="#C49B64" stroke-miterlimit="10" stroke-linecap="round" stroke-linejoin="round"/>
<path d="M18.3913 5.47125H23.6087" stroke="#C49B64" stroke-miterlimit="10" stroke-linecap="round" stroke-linejoin="round"/>
</svg>
