<svg width="51" height="50" viewBox="0 0 51 50" fill="none" xmlns="http://www.w3.org/2000/svg">
<path d="M23 4.66142L19.9939 17.9806H7L10.8756 0.807239L23 4.66142Z" stroke="#C49B64" stroke-miterlimit="10" stroke-linecap="round" stroke-linejoin="round"/>
<path d="M20 17.9806L16.7504 32.7389C15.8228 36.9482 12.2684 39.4463 8.80819 38.3174C5.34926 37.1917 3.29511 32.8615 4.22279 28.6522L6.57246 17.9806H20Z" stroke="#C49B64" stroke-miterlimit="10" stroke-linecap="round" stroke-linejoin="round"/>
<path d="M7 47.7477L9 38.5886" stroke="#C49B64" stroke-miterlimit="10" stroke-linecap="round" stroke-linejoin="round"/>
<path d="M13 48.8926L1 44.3131" stroke="#C49B64" stroke-miterlimit="10" stroke-linecap="round" stroke-linejoin="round"/>
<path d="M42.1909 38.3174C38.7322 39.4463 35.1769 36.9482 34.2493 32.7389L31 17.9806H44.4278L46.7772 28.6522C47.7048 32.8615 45.6509 37.1917 42.1909 38.3174Z" stroke="#C49B64" stroke-miterlimit="10" stroke-linecap="round" stroke-linejoin="round"/>
<path d="M44 17.9806H30.1926L27 4.66142L39.8794 0.807239L44 17.9806Z" stroke="#C49B64" stroke-miterlimit="10" stroke-linecap="round" stroke-linejoin="round"/>
<path d="M44 47.7477L42 38.5886" stroke="#C49B64" stroke-miterlimit="10" stroke-linecap="round" stroke-linejoin="round"/>
<path d="M50 44.3131L38 48.8926" stroke="#C49B64" stroke-miterlimit="10" stroke-linecap="round" stroke-linejoin="round"/>
</svg>
