<svg width="72" height="74" viewBox="0 0 72 74" fill="none" xmlns="http://www.w3.org/2000/svg">
<path fill-rule="evenodd" clip-rule="evenodd" d="M36.04 5.33291L28.0071 0.170333C27.8505 0.0696366 27.6727 0.0158719 27.4932 0.00954548C27.3138 0.00321902 27.1326 0.0443335 26.9693 0.133607C26.806 0.22288 26.6734 0.353276 26.5818 0.507748C26.4903 0.662395 26.4394 0.841294 26.4394 1.02757V2.33733L14.5234 7.60903C13.4329 8.0916 12.4923 8.82301 11.7644 9.72593C11.0362 10.6289 10.5207 11.7035 10.2799 12.8725L0.00868444 62.7233C-0.01695 62.8482 0.0148285 62.9781 0.0952435 63.077C0.175834 63.1759 0.296632 63.2334 0.424102 63.2334H11.4187C11.6151 63.2334 11.7858 63.0983 11.8313 62.9069L16.1247 44.8009L14.9452 71.7849C14.9325 72.0741 14.979 72.3597 15.0789 72.625C15.1787 72.8906 15.3318 73.1361 15.5318 73.3452C15.7317 73.5543 15.97 73.7179 16.2306 73.8294C16.4913 73.9408 16.7741 74 17.0635 74H29.1933C29.6962 74 30.1643 73.8232 30.5323 73.5234C30.9001 73.2234 31.1679 72.8004 31.2697 72.3077L36 49.4263L40.7303 72.3077C40.8321 72.8004 41.0999 73.2234 41.4677 73.5234C41.8357 73.8232 42.3038 74 42.8067 74H54.9367C55.2258 74 55.5087 73.9408 55.7694 73.8294C56.03 73.7179 56.2683 73.5543 56.4682 73.3452C56.6682 73.1361 56.8213 72.8906 56.9211 72.625C57.021 72.3597 57.0675 72.0741 57.0549 71.7849L55.8753 44.8009L60.1687 62.9069C60.2142 63.0983 60.3849 63.2334 60.5813 63.2334H71.5759C71.7034 63.2334 71.8242 63.1759 71.9048 63.077C71.9852 62.9781 72.017 62.8482 71.9913 62.7233L61.7207 12.8751C61.4798 11.7054 60.9638 10.6301 60.2351 9.72629C59.5066 8.82266 58.5654 8.09072 57.474 7.60797L45.5606 2.33733V1.00192C45.5606 0.818274 45.5104 0.642018 45.42 0.489831C45.3295 0.337644 45.1989 0.209354 45.0377 0.121662C44.8766 0.0339706 44.698 -0.00609494 44.5212 0.000758727C44.3444 0.0076124 44.1693 0.0612137 44.0153 0.161031L36.04 5.33291ZM35.5268 47.5253L22.5043 13.0888C22.4373 12.9115 22.4957 12.7111 22.6478 12.598L24.8859 10.9324L22.7089 9.82523C22.6049 9.77233 22.5273 9.67901 22.4941 9.56707C22.4611 9.45513 22.4755 9.33458 22.5342 9.2337L25.8419 3.52987L14.8663 8.38543C13.9012 8.81247 13.0687 9.45988 12.4244 10.2591C11.78 11.0582 11.3237 12.0093 11.1105 13.0438C11.1105 13.0438 2.02731 57.1293 0.944515 62.3844H11.0835L16.3052 40.3638C16.3094 40.346 16.3147 40.329 16.321 40.3125L17.349 16.7944C17.3594 16.5603 17.5574 16.3786 17.7913 16.3888C18.0252 16.3991 18.2065 16.5974 18.1963 16.8314L15.7925 71.8219C15.7848 71.9956 15.8129 72.1669 15.8727 72.3261C15.9326 72.4853 16.0244 72.6328 16.1443 72.7583C16.2644 72.8836 16.4074 72.9818 16.5638 73.0487C16.7201 73.1155 16.8899 73.151 17.0635 73.151H29.1933C29.495 73.151 29.7759 73.0451 29.9968 72.8651C30.2175 72.6851 30.3782 72.4314 30.4393 72.1356L35.5268 47.5253ZM55.679 40.3125C55.6853 40.329 55.6906 40.346 55.6948 40.3638L60.9165 62.3844H71.0555L60.89 13.0465C60.6767 12.0112 60.22 11.0594 59.5751 10.2595C58.9302 9.4597 58.0973 8.81176 57.1311 8.38437L46.1581 3.52987L49.4658 9.2337C49.5245 9.33458 49.5389 9.45513 49.5059 9.56707C49.4728 9.67901 49.3952 9.77233 49.2913 9.82523L47.1141 10.9324L49.3522 12.598C49.5043 12.7111 49.5627 12.9115 49.4957 13.0888L36.4732 47.5253L41.5607 72.1356C41.6218 72.4314 41.7825 72.6851 42.0032 72.8651C42.2241 73.0451 42.505 73.151 42.8067 73.151H54.9367C55.1101 73.151 55.2799 73.1155 55.4362 73.0487C55.5926 72.9818 55.7356 72.8836 55.8557 72.7583C55.9756 72.6328 56.0674 72.4853 56.1273 72.3261C56.1871 72.1669 56.2152 71.9956 56.2075 71.8219L53.8037 16.8314C53.7935 16.5974 53.975 16.3991 54.2087 16.3888C54.4426 16.3786 54.6408 16.5603 54.651 16.7944L55.679 40.3125ZM36 45.5374L44.7124 2.57123V1.00192C44.7124 0.973799 44.7048 0.946908 44.691 0.923711C44.6771 0.900514 44.6572 0.880846 44.6327 0.86749C44.6081 0.854134 44.5807 0.847969 44.5538 0.849024C44.5268 0.850078 44.5001 0.858349 44.4766 0.873462L36.2716 6.19419L36.2692 6.19577L36.2634 6.19946L36.2567 6.2035L36.253 6.20561L36.2498 6.20737L36.2456 6.20983L36.2398 6.21282L36.234 6.21598L36.2298 6.21809L36.2274 6.21931L36.2235 6.22107L36.2147 6.2253L36.2096 6.22741L36.2088 6.22775L36.2074 6.22845C36.1571 6.24989 36.1041 6.26114 36.0516 6.26237H36.0506H36.042H36.0334H36.0323C35.9796 6.26132 35.9266 6.2506 35.8764 6.22916L35.8748 6.22845L35.8741 6.2281L35.8688 6.226L35.8602 6.22178L35.8562 6.22002L35.8537 6.21879L35.8495 6.21686L35.8437 6.21369L35.8379 6.21071L35.8337 6.20825L35.8306 6.20649L35.8269 6.20438L35.8202 6.20051L35.8142 6.19665L35.812 6.19525L27.5489 0.884703C27.5227 0.867832 27.4932 0.858865 27.4632 0.857811C27.4333 0.856756 27.4031 0.863622 27.3759 0.878559C27.3487 0.893497 27.3266 0.915109 27.3113 0.940942C27.296 0.966775 27.2876 0.996468 27.2876 1.02757V2.57123L36 45.5374ZM26.6699 3.79312L23.4928 9.27167L25.8802 10.4858C26.0112 10.5522 26.0983 10.6818 26.1107 10.8283C26.123 10.9747 26.0589 11.1171 25.9411 11.2048L23.4108 13.0881L34.5018 42.4165L26.6699 3.79312ZM45.3301 3.79312L37.4982 42.4165C40.8433 33.5713 47.6314 15.6208 48.5892 13.0881L46.0589 11.2048C45.9411 11.1171 45.877 10.9747 45.8893 10.8283C45.9018 10.6818 45.989 10.5522 46.1198 10.4858L48.5073 9.27167L45.3301 3.79312ZM34.5666 12.5391C34.5768 12.5507 34.5873 12.5618 34.5982 12.5727C34.7516 12.7263 34.9636 12.8213 35.1978 12.8213H37.0278C37.2621 12.8213 37.4742 12.7263 37.6276 12.5727L37.6394 12.5604L40.7283 13.9812C40.8728 14.0476 41.0291 14.075 41.1829 14.0643C41.3365 14.0536 41.4875 14.0047 41.6215 13.919C41.7553 13.833 41.8626 13.7162 41.9365 13.5809C42.0104 13.4455 42.051 13.292 42.051 13.1327V8.69191C42.051 8.52496 42.0072 8.36434 41.9281 8.22375C41.8487 8.08316 41.7337 7.96261 41.5911 7.8765C41.4484 7.79022 41.2884 7.74452 41.1271 7.73978C40.9659 7.73503 40.8035 7.77141 40.656 7.84909L37.746 9.38273C37.7122 9.3286 37.6724 9.27869 37.6276 9.23388C37.4742 9.08028 37.2621 8.98521 37.0278 8.98521H35.1978C34.9636 8.98521 34.7516 9.08028 34.5982 9.23388C34.546 9.28589 34.5007 9.34477 34.4639 9.40909L31.4766 7.83468C31.3319 7.75841 31.1726 7.72291 31.0146 7.72748C30.8566 7.73222 30.6996 7.77703 30.5597 7.86156C30.4199 7.94609 30.3072 8.06419 30.2294 8.20196C30.1517 8.33974 30.109 8.49738 30.109 8.66099V13.1327C30.109 13.292 30.1494 13.4455 30.2233 13.5809C30.2972 13.7162 30.4047 13.833 30.5385 13.919C30.6722 14.0047 30.8232 14.0536 30.977 14.0643C31.1307 14.075 31.2871 14.0476 31.4314 13.9812L34.5666 12.5391ZM37.8761 11.7349L41.0825 13.2099L41.1638 13.2043L41.2027 13.1327V8.69191C41.2027 8.67363 41.198 8.65624 41.1894 8.64095C41.1808 8.62566 41.1683 8.61248 41.1527 8.60317C41.1373 8.59385 41.1199 8.58893 41.1023 8.5884C41.0848 8.58787 41.0672 8.59174 41.0512 8.60017L37.8761 10.2735V10.629H40.4121C40.6462 10.629 40.8361 10.8194 40.8361 11.0536C40.8361 11.2879 40.6462 11.478 40.4121 11.478H37.8761V11.7349ZM34.3497 10.3066C34.339 10.3022 34.3287 10.2971 34.3183 10.2916L31.0813 8.58577C31.0683 8.57891 31.0538 8.57575 31.0394 8.5761C31.025 8.57646 31.0108 8.5805 30.9981 8.58823C30.9853 8.59596 30.9751 8.60668 30.9681 8.61915C30.9609 8.63181 30.957 8.64605 30.957 8.66099V13.1327L30.9962 13.2043L31.0773 13.2099L34.3387 11.7096L34.3497 11.7049V11.478H31.7478C31.5138 11.478 31.3236 11.2879 31.3236 11.0536C31.3236 10.8194 31.5138 10.629 31.7478 10.629H34.3497V10.3066ZM37.0278 9.83419V11.9724H35.1978V9.83419H37.0278Z" fill="#CB8D28"/>
</svg>
