<svg width="72" height="108" viewBox="0 0 72 108" fill="none" xmlns="http://www.w3.org/2000/svg">
<path fill-rule="evenodd" clip-rule="evenodd" d="M71.387 108H0.612904C0.415945 108 0.23118 107.907 0.117471 107.749C0.00173201 107.591 -0.0307522 107.389 0.0301631 107.204L24.1161 33.9003C23.2044 28.6686 22.3211 24.604 21.515 21.4529C20.4876 17.4437 19.584 14.9241 18.8977 13.364C18.6053 12.7405 18.1464 12.2291 17.5839 11.8731C17.0215 11.5162 16.3595 11.3158 15.6631 11.3158H15.263C14.8224 11.3158 14.4244 11.1389 14.1361 10.8527C13.8478 10.5666 13.6691 10.1712 13.6691 9.73468V3.0407C13.6691 2.63742 13.7503 2.2424 13.9026 1.877C14.0549 1.51159 14.2803 1.17558 14.5666 0.890551C14.8549 0.605315 15.194 0.382732 15.5615 0.231452C15.9291 0.0799709 16.3291 -4.62296e-06 16.7352 -4.62296e-06H20.3272C20.8267 -4.62296e-06 21.314 0.0960871 21.7688 0.277985C22.2237 0.460085 22.6419 0.728197 23.0013 1.07205L36.0494 13.5737L48.9895 1.08716C49.3507 0.738672 49.7734 0.466726 50.2317 0.282008C50.69 0.0974912 51.184 -4.62296e-06 51.688 -4.62296e-06H55.2652C55.6717 -4.62296e-06 56.0698 0.0799709 56.4382 0.231452C56.8065 0.382732 57.1452 0.605315 57.4325 0.890551C57.72 1.17558 57.9444 1.51159 58.0971 1.877C58.2496 2.2424 58.3304 2.63742 58.3304 3.0407V9.73468C58.3304 10.1712 58.1519 10.5666 57.8636 10.8527C57.5751 11.1389 57.1767 11.3158 56.7365 11.3158H54.5267C54.4292 11.3158 54.3344 11.3379 54.2489 11.379C54.1709 11.4165 54.1009 11.4695 54.0432 11.5359C53.4712 12.4273 52.2957 14.7328 50.8163 20.1959C49.9215 23.5005 48.9214 27.9436 47.884 33.9003C49.0625 37.4871 71.9698 107.204 71.9698 107.204C72.0307 107.389 71.9984 107.591 71.8831 107.749C71.7677 107.907 71.5834 108 71.387 108ZM24.4999 36.6582H47.5007L70.5423 106.784H35.9499H1.45761L24.4999 36.6582ZM45.3353 39.603L60.6535 101.539C60.7341 101.865 60.5329 102.194 60.2042 102.274C59.8756 102.354 59.5434 102.155 59.4628 101.829L44.1447 39.8929C44.0641 39.5668 44.2653 39.2372 44.594 39.1573C44.9225 39.0773 45.2547 39.2771 45.3353 39.603ZM27.9497 39.8929L12.6315 101.829C12.5503 102.155 12.2173 102.354 11.8904 102.274C11.5614 102.194 11.3604 101.865 11.4396 101.539L26.7578 39.603C26.839 39.2771 27.172 39.0773 27.4989 39.1573C27.8279 39.2372 28.0289 39.5668 27.9497 39.8929ZM33.7001 39.8333L24.843 101.769C24.7943 102.102 24.4836 102.333 24.1486 102.286C23.8135 102.239 23.58 101.931 23.6288 101.598L32.4859 39.6625C32.5346 39.3301 32.8432 39.0987 33.1783 39.1458C33.5133 39.1929 33.7468 39.5011 33.7001 39.8333ZM39.6069 39.6625L48.4654 101.598C48.5129 101.931 48.2796 102.239 47.9446 102.286C47.6095 102.333 47.2991 102.102 47.2515 101.769L38.3926 39.8333C38.3459 39.5011 38.5794 39.1929 38.9145 39.1458C39.2495 39.0987 39.5602 39.3301 39.6069 39.6625ZM46.7476 34.3661L47.1011 35.442H24.8978L25.2532 34.3661H46.7476ZM36.4738 14.8605L36.4779 14.8564L49.8443 1.95918C50.091 1.72088 50.38 1.53516 50.6931 1.40906C51.0062 1.28296 51.3438 1.21627 51.688 1.21627H55.2652C55.509 1.21627 55.748 1.26422 55.9689 1.35507C56.19 1.44592 56.3931 1.57947 56.5657 1.75069C56.7381 1.92171 56.8727 2.12315 56.9643 2.34251C57.0559 2.56168 57.1042 2.79877 57.1042 3.0407V9.73468C57.1042 9.8354 57.0632 9.92665 56.9966 9.99272C56.93 10.0588 56.838 10.0995 56.7365 10.0995H54.5269C54.242 10.0995 53.9648 10.1641 53.7147 10.2842C53.4647 10.4043 53.2418 10.5797 53.0649 10.8013C53.0525 10.8168 53.0409 10.8329 53.0302 10.8494C52.4436 11.7535 51.1885 14.1337 49.6323 19.8803C48.7578 23.1097 47.7827 27.4177 46.7713 33.1498H25.2288C24.3455 28.1402 23.4887 24.2178 22.7029 21.1532C21.649 17.0456 20.7211 14.4675 20.0185 12.8717C20.0165 12.8676 20.0144 12.8636 20.0144 12.8596C19.6205 12.0184 19.0012 11.3282 18.2459 10.8486C17.4885 10.3688 16.5971 10.0995 15.6631 10.0995H15.263C15.1615 10.0995 15.0702 10.0588 15.0031 9.99272C14.9361 9.92665 14.8955 9.8354 14.8955 9.73468V3.0407C14.8955 2.79877 14.9443 2.56168 15.0356 2.34251C15.127 2.12315 15.261 1.92171 15.4336 1.75069C15.6062 1.57947 15.8093 1.44592 16.0306 1.35507C16.2519 1.26422 16.4915 1.21627 16.7352 1.21627H20.3272C20.6663 1.21627 20.9993 1.28174 21.3099 1.40583C21.6186 1.52992 21.9049 1.71262 22.1485 1.94689L35.625 14.858L35.6291 14.8621L35.6331 14.8665L35.6413 14.8733L35.6474 14.8792L35.6514 14.8826L35.6575 14.8868L35.6656 14.8935L35.6717 14.8989L35.6758 14.902L35.6819 14.906L35.69 14.9122L35.6961 14.9173L35.7002 14.9201L35.7063 14.9237L35.7144 14.9294L35.7225 14.9342L35.7266 14.937L35.7306 14.94L35.7408 14.9451L35.7489 14.9497L35.753 14.9523L35.757 14.9551L35.7672 14.9594L35.7753 14.964L35.7793 14.9662L35.7854 14.9686L35.7936 14.9725L35.8017 14.9767L35.8078 14.9789L35.8118 14.9809L35.82 14.9841L35.8301 14.988L35.8362 14.99L35.8403 14.9916L35.8484 14.9944L35.8585 14.9978L35.8626 14.9996L35.8687 15.0011L35.8748 15.0033L35.887 15.0065L35.8931 15.0079L35.8971 15.0091L35.9052 15.0109L35.9154 15.0136L35.9215 15.0148L35.9256 15.0158L35.9337 15.0174L35.9438 15.0194L35.9499 15.0202L35.954 15.021L35.9621 15.0222L35.9722 15.0238L35.9783 15.0244L35.9844 15.025L35.9926 15.0256L36.0027 15.0266L36.0068 15.027L36.0129 15.0275L36.021 15.0279L36.0311 15.0283H36.0372L36.0413 15.0285H36.0514H36.0616L36.0656 15.0283H36.0718L36.0819 15.0276L36.09 15.0272L36.0961 15.0268L36.1002 15.0266L36.1103 15.0254L36.1205 15.0246L36.1245 15.024L36.1306 15.0234L36.1408 15.0218L36.1489 15.0208L36.153 15.02L36.1591 15.019L36.1692 15.0168L36.1773 15.0154L36.1814 15.0144L36.1875 15.0132L36.1997 15.0105L36.2078 15.0085L36.2118 15.0073L36.2179 15.0059L36.2281 15.0027L36.2362 15.0005L36.2403 14.999L36.2443 14.9972L36.2545 14.9936L36.2626 14.991L36.2687 14.9892L36.2728 14.9872L36.2829 14.9833L36.291 14.9801L36.2951 14.9779L36.3012 14.9757L36.3093 14.9714L36.3195 14.9678L36.3235 14.9654L36.3276 14.963L36.3357 14.9584L36.3459 14.9541L36.3499 14.9513L36.354 14.9487L36.3621 14.9441L36.3702 14.939L36.3763 14.9358L36.3804 14.933L36.3885 14.9281L36.3966 14.9225L36.4027 14.9189L36.4068 14.9161L36.4129 14.911L36.421 14.9048L36.4271 14.9007L36.4311 14.8975L36.4372 14.8921L36.4454 14.8856L36.4514 14.8812L36.4555 14.8778L36.4616 14.8717L36.4697 14.8651L36.4738 14.8605Z" fill="#CB8D28"/>
</svg>
