<svg width="169" height="159" viewBox="0 0 169 159" fill="none" xmlns="http://www.w3.org/2000/svg">
<path d="M165.04 29.1853C110.536 14.8937 43.8563 56.6689 48.8538 115.596" stroke="#C49B64" stroke-width="1.06667" stroke-miterlimit="10"/>
<path d="M156.041 27.8472C137.225 28.2344 125.491 37.0123 123.492 38.5723C119.377 41.7859 120.406 45.8181 125.145 45.5421C133.178 45.0744 146.979 34.9222 156.041 27.8472Z" stroke="#C49B64" stroke-width="1.06667" stroke-miterlimit="10"/>
<path d="M101.697 36.4179C84.7335 44.5699 77.6941 57.4236 76.5215 59.6713C74.1091 64.3019 76.7172 67.5433 80.9138 65.3288C88.0318 61.5728 96.3825 46.6127 101.697 36.4179Z" stroke="#C49B64" stroke-width="1.06667" stroke-miterlimit="10"/>
<path d="M58.1868 74.8042C56.062 93.5053 63.199 106.305 64.4783 108.493C67.1143 113 71.247 112.516 71.6051 107.784C72.2139 99.7602 63.9904 84.7285 58.1868 74.8042Z" stroke="#C49B64" stroke-width="1.06667" stroke-miterlimit="10"/>
<path d="M53.7718 80.8612C36.6732 88.7298 29.4208 101.464 28.2127 103.692C25.7216 108.28 28.2751 111.566 32.5091 109.422C39.6886 105.784 48.2872 90.9662 53.7718 80.8612Z" stroke="#C49B64" stroke-width="1.06667" stroke-miterlimit="10"/>
<path d="M49.0261 114.353C48.9303 133.174 57.4054 145.129 58.9135 147.168C62.0195 151.363 66.0778 150.437 65.9233 145.694C65.662 137.651 55.8658 123.594 49.0261 114.353Z" stroke="#C49B64" stroke-width="1.06667" stroke-miterlimit="10"/>
<path d="M48.5175 114.511C47.9208 133.323 39.0113 144.957 37.4281 146.938C34.1693 151.018 30.1499 149.943 30.4781 145.208C31.0351 137.18 41.3425 123.494 48.5175 114.511Z" stroke="#C49B64" stroke-width="1.06667" stroke-miterlimit="10"/>
<path d="M77.7622 49.4836C59.0185 47.7754 46.38 55.1946 44.2219 56.5235C39.7746 59.2581 40.3493 63.3793 45.0888 63.6334C53.1251 64.0624 67.9686 55.5063 77.7622 49.4836Z" stroke="#C49B64" stroke-width="1.06667" stroke-miterlimit="10"/>
<path d="M126.945 26.9898C110.589 17.6785 96.0139 19.2028 93.4987 19.5186C88.3178 20.169 87.1363 24.1587 91.3453 26.3499C98.4832 30.0653 115.538 28.4205 126.945 26.9898Z" stroke="#C49B64" stroke-width="1.06667" stroke-miterlimit="10"/>
</svg>
