<svg width="125" height="170" viewBox="0 0 125 170" fill="none" xmlns="http://www.w3.org/2000/svg">
<path d="M85.0661 167.777C117.448 121.665 101.516 44.6092 44.5389 28.7673" stroke="#C49B64" stroke-width="1.06667" stroke-miterlimit="10"/>
<path d="M89.4551 159.808C95.6465 142.035 91.5059 127.978 90.7397 125.561C89.1606 120.585 85.0227 120.144 83.6308 124.682C81.2709 132.376 85.9801 148.848 89.4551 159.808Z" stroke="#C49B64" stroke-width="1.06667" stroke-miterlimit="10"/>
<path d="M100.351 105.881C98.6187 87.1408 89.0221 76.0649 87.3236 74.1827C83.8233 70.3085 79.8764 71.6241 80.4904 76.3293C81.5318 84.3098 92.6461 97.3487 100.351 105.881Z" stroke="#C49B64" stroke-width="1.06667" stroke-miterlimit="10"/>
<path d="M79.5251 51.725C62.7353 43.219 48.251 45.4504 45.755 45.8877C40.6119 46.7885 39.6254 50.8308 43.9369 52.815C51.2459 56.1806 68.2007 53.7081 79.5251 51.725Z" stroke="#C49B64" stroke-width="1.06667" stroke-miterlimit="10"/>
<path d="M75.3854 45.4766C73.9656 26.708 64.5553 15.4742 62.8877 13.5656C59.4547 9.63235 55.4849 10.8813 56.0195 15.5968C56.9291 23.594 67.8236 36.8157 75.3854 45.4766Z" stroke="#C49B64" stroke-width="1.06667" stroke-miterlimit="10"/>
<path d="M45.644 29.3618C28.0354 22.7161 13.8766 26.4959 11.4406 27.1995C6.42605 28.6497 5.88089 32.7765 10.3804 34.2837C18.0106 36.8405 34.5998 32.5544 45.644 29.3618Z" stroke="#C49B64" stroke-width="1.06667" stroke-miterlimit="10"/>
<path d="M45.6735 28.8301C28.247 21.7178 20.4453 9.31382 19.1396 7.13959C16.4511 2.66399 18.8585 -0.729349 23.1822 1.22753C30.5138 4.54623 39.7523 18.9755 45.6735 28.8301Z" stroke="#C49B64" stroke-width="1.06667" stroke-miterlimit="10"/>
<path d="M96.4411 78.8945C104.571 61.9196 102.019 47.4883 101.525 45.0025C100.511 39.8812 96.4479 38.9844 94.5587 43.3385C91.3573 50.7221 94.207 67.6163 96.4411 78.8945Z" stroke="#C49B64" stroke-width="1.06667" stroke-miterlimit="10"/>
<path d="M100.394 132.833C114.82 120.744 118.468 106.551 119.048 104.083C120.243 99.0002 116.915 96.5029 113.394 99.685C107.425 105.082 103.027 121.641 100.394 132.833Z" stroke="#C49B64" stroke-width="1.06667" stroke-miterlimit="10"/>
</svg>
