<svg width="57" height="44" viewBox="0 0 57 44" fill="none" xmlns="http://www.w3.org/2000/svg">
<path d="M6.15321 40.9697C9.33119 42.9566 12.9526 43.9428 16.6479 43.9428C20.4024 43.9428 24.216 42.9137 27.7044 40.8696C29.1086 41.956 30.7345 42.7421 32.5526 43.171C34.6664 43.6855 37.2235 44 39.7659 44C43.0178 44 46.2549 43.4711 48.5756 42.1561C56.2323 37.8107 59.3364 26.1755 55.0794 17.7421C52.8474 13.3396 48.3686 10.2521 43.0769 9.35158C43.1065 9.32299 43.1508 9.2944 43.1804 9.26581L43.21 9.28011L43.2395 9.22293C43.4612 9.0514 43.6977 8.87987 43.8751 8.72264C45.1315 7.70777 45.7523 7.06455 46.6688 6.10686L47.26 5.49222L46.8462 5.10628C46.4323 4.73464 46.2401 4.44876 45.9888 4.10571C45.8558 3.90559 45.708 3.69119 45.5011 3.44819L45.3237 3.23378L37.8739 3.07655C37.5783 3.07655 37.1348 3.06226 36.7653 3.06226H35.8636L35.701 3.34813C35.6271 3.47678 34.9768 4.62029 34.7846 5.23493L34.6959 5.5351L34.9029 5.7638C35.568 6.50709 36.3367 7.22178 37.0757 7.90789C37.5044 8.30812 37.933 8.70835 38.3321 9.10858C37.2827 9.18005 36.248 9.33728 35.2576 9.58028C32.6413 10.2378 30.3059 11.4242 28.2956 13.1109C27.2461 12.3104 26.0932 11.61 24.8811 11.0383C18.7025 8.17947 11.4893 9.00852 6.49318 13.1538C1.51188 17.2847 -0.912259 24.4316 0.31459 31.3499C0.743248 33.8799 2.07357 38.4397 6.15321 40.9697ZM40.6971 9.10858C40.4163 9.09428 40.1502 9.09428 39.8842 9.09428C39.7659 8.96564 39.6181 8.83699 39.4999 8.69405C39.8694 8.06512 40.2833 7.46478 40.7563 6.92161C41.1406 7.53625 41.584 8.1223 42.057 8.67976C41.8353 8.85129 41.6431 8.99423 41.5101 9.07999C41.3327 9.07999 41.0667 9.09428 40.7563 9.09428C40.7415 9.10858 40.7119 9.10858 40.6971 9.10858ZM39.5294 5.3064C39.2929 4.94905 39.0416 4.606 38.7903 4.24865L42.8552 4.33441C42.5744 4.74894 42.264 5.16346 41.9683 5.47793C41.1849 5.49222 40.4163 5.49222 39.6329 5.47793L39.5294 5.3064ZM43.1213 7.86501C43.0769 7.90789 43.0178 7.95077 42.9587 7.99365C42.5744 7.55054 42.2344 7.07884 41.9092 6.59285C42.8256 6.57856 43.7421 6.56426 44.6585 6.52138C44.2151 6.9502 43.7716 7.35043 43.1213 7.86501ZM44.9985 4.74894C45.1463 4.94905 45.2941 5.16346 45.4715 5.37787C44.8063 5.40646 44.1264 5.43504 43.4612 5.44934C43.7273 5.09199 43.9934 4.70606 44.2003 4.34871L44.7177 4.363C44.8359 4.49165 44.9246 4.62029 44.9985 4.74894ZM36.5436 4.22006H36.7505C36.9427 4.22006 37.1644 4.22006 37.3713 4.22006C37.667 4.63458 37.9478 5.03481 38.2287 5.44934C37.5044 5.43504 36.7801 5.40646 36.0558 5.36357C36.041 5.34928 36.0262 5.33499 36.0115 5.32069C36.1445 4.97764 36.381 4.53453 36.5436 4.22006ZM37.8739 7.13602C37.667 6.9359 37.4453 6.73579 37.2383 6.53567C38.0069 6.56426 38.7756 6.57856 39.5442 6.59285C39.219 6.99308 38.9234 7.4219 38.6425 7.86501C38.3913 7.60772 38.1252 7.37902 37.8739 7.13602ZM35.5532 10.7095C36.8983 10.3664 38.3321 10.2092 39.7955 10.2092C40.0024 10.2235 40.2241 10.2235 40.5198 10.2235C40.5937 10.2235 40.6528 10.2235 40.7119 10.2235C46.5653 10.5237 51.6649 13.5826 54.0151 18.2424C58.0208 26.1755 55.1385 37.1246 47.9695 41.1984C44.2742 43.2996 37.5487 43.2281 32.8039 42.0846C29.0495 41.1698 26.1819 38.6541 24.5116 34.809C23.403 32.2504 22.8709 29.4345 22.9891 26.6615C23.1222 23.4311 24.0829 20.3436 25.7828 17.7135C26.0636 17.9851 26.3297 18.2567 26.581 18.5426C26.9801 19 27.32 19.486 27.6452 20.0005C27.0835 21.1155 26.6549 22.3019 26.3888 23.574C26.3593 23.6884 26.3445 23.8027 26.3149 23.9314C25.6054 27.7764 26.2854 31.5929 28.1921 34.4231C30.8676 38.3968 35.4941 39.7833 39.4555 39.7833C40.0468 39.7833 40.6232 39.7547 41.1701 39.6975C46.181 39.1687 50.2459 35.8525 51.7683 31.0354C53.3647 25.9754 52.7143 19.2573 47.6591 15.6981C43.8751 13.0251 39.4112 13.4253 35.5385 14.0257C33.8977 14.2687 32.4048 14.8976 31.0893 15.8696C30.5128 15.1692 29.8772 14.5117 29.1825 13.9113C31.0449 12.3819 33.1734 11.3098 35.5532 10.7095ZM23.4473 35.2378C23.6986 35.8096 23.9647 36.3385 24.2603 36.8531C19.3086 39.6261 11.6519 39.5689 7.69047 34.9948C5.62108 32.6078 4.7342 29.3345 5.23677 25.7896C5.79846 21.773 8.06 17.8993 11.031 15.9125C15.0811 13.1966 20.905 13.7398 24.9403 16.9416C23.063 19.7718 21.9988 23.1023 21.8657 26.6043C21.7179 29.5489 22.2796 32.5363 23.4473 35.2378ZM27.4679 24.1172C27.4826 24.0028 27.5122 23.9028 27.527 23.7884C27.7044 22.9022 27.9852 22.0589 28.3252 21.2441C30.025 24.8176 30.1285 29.1915 28.4582 32.5506C27.2757 30.1349 26.9062 27.1475 27.4679 24.1172ZM32.4344 17.7564C32.2274 17.4133 32.0205 17.0846 31.784 16.7558C32.9517 15.8982 34.282 15.3407 35.7306 15.1263C39.3816 14.5689 43.5647 14.1829 46.994 16.5986C51.591 19.829 52.1527 26.004 50.6745 30.6924C49.2851 35.0806 45.6045 38.0966 41.0667 38.5683C38.3765 38.8542 35.0802 38.4397 32.39 36.8245C33.9273 34.6661 34.7846 31.7072 34.8881 28.2195C34.962 25.4608 34.6072 21.4013 32.4344 17.7564ZM7.24703 14.0543C11.9031 10.1949 18.6139 9.42304 24.3786 12.096C27.3792 13.4825 29.8772 15.6981 31.444 18.3139C33.4839 21.7301 33.809 25.5752 33.7351 28.1909C33.6317 31.45 32.8483 34.1944 31.444 36.1812C30.6015 35.538 29.8329 34.7519 29.1825 33.8085C29.1677 33.7799 29.1529 33.7656 29.1381 33.737C31.9466 28.9914 31.2667 22.2161 27.4826 17.8136C23.1665 12.7964 15.4802 11.5242 10.3511 14.9834C7.08443 17.1846 4.67508 21.2584 4.06904 25.6466C3.53692 29.506 4.4977 33.0795 6.7888 35.7238C9.27207 38.5826 13.0413 39.8405 16.8253 39.8405C19.6781 39.8405 22.5457 39.1115 24.8516 37.825C25.428 38.6684 26.0636 39.426 26.7731 40.0978C20.2989 43.7284 12.7161 43.7427 6.77402 40.0406C3.0787 37.7393 1.85185 33.5369 1.43797 31.2355C0.299809 24.6746 2.57613 17.9422 7.24703 14.0543Z" fill="#423340"/>
<path d="M42.3883 3.54496C42.5657 2.51579 42.6248 1.47234 42.5657 0.443176L41.398 0.500352C41.4571 1.45804 41.398 2.41574 41.2354 3.34484L42.3883 3.54496Z" fill="#423340"/>
<path d="M47.946 0L45.8619 3.67353L46.8522 4.25958L47.1331 3.84506L47.1035 3.83077L48.966 0.543169L47.946 0Z" fill="#423340"/>
<path d="M37.6506 3.70697L35.7035 0.0943604L34.668 0.616285L36.6151 4.2289L37.6506 3.70697Z" fill="#423340"/>
</svg>
